<?xml version="1.0" encoding="utf-8" ?>
<svg baseProfile="full" height="200mm" version="1.1" viewBox="0,0,200,200" width="200mm" xmlns="http://www.w3.org/2000/svg" xmlns:ev="http://www.w3.org/2001/xml-events" xmlns:xlink="http://www.w3.org/1999/xlink"><defs /><rect fill="#1a1a1a" height="200" width="200" x="0" y="0" /><text alignment-baseline="middle" fill="#e1ed5e" style="dominant-baseline: central; font-size:9.0px; font-family:Arial;" text-anchor="middle" x="100.0" y="100.0">2023</text><line stroke="#e1ed5e" stroke-width="0.3" x1="100.0" x2="100.0" y1="15.0" y2="10.0" /><path d="M 100.0 14.0 a86.0,86.0 0 0,1 42.46469731375804,11.215312516191453" fill="none" id="id61" stroke="none" /><text fill="#e1ed5e" style="font-size:6.75px; font-family:Arial;" text-anchor="middle"><textPath startOffset="22.20632615414155" xlink:href="#id61">January</textPath></text><line stroke="#e1ed5e" stroke-width="0.3" x1="143.23703022742887" x2="145.7803849466894" y1="26.81831364943548" y2="22.513508569990506" /><path d="M 143.74570117128098 25.957352633546492 a86.0,86.0 0 0,1 28.547481713284135,27.462654790039103" fill="none" id="id62" stroke="none" /><text fill="#e1ed5e" style="font-size:6.75px; font-family:Arial;" text-anchor="middle"><textPath startOffset="19.985693538727396" xlink:href="#id62">February</textPath></text><path d="M 115.4437574822437 85.77008943001954 l 40.93923861258197 -37.72150041399751 a76.66805952843279,76.66805952843279 0 0,0 0.8859043907715505,0.9782377550521838 l -41.58248664396955 37.011209871675774" fill="#40ffc5" stroke="none" /><path d="M 116.38621287248628 86.86637796730983 l 21.82640320595532 -17.49395862673296 a48.971958553930065,48.971958553930065 0 0,0 0.5215418426622845,0.6623051767777477 l -22.12429912921157 17.11566105600218" fill="#ff9c0e" stroke="none" /><path d="M 116.60985879189232 87.15038557335679 l 22.037023787478976 -17.04814365538678 a48.861615522159134,48.861615522159134 0 0,0 0.5089148054388152,0.6696722296345238 l -22.327214533141902 16.666286649871225" fill="#ff9a0e" stroke="none" /><path d="M 117.45458315368197 88.32363383020206 l 23.111899481700245 -15.460867718915926 a48.806444006273665,48.806444006273665 0 0,0 0.4611125098599873,0.7023059876276679 l -23.374608626918157 15.060743667310584" fill="#ff980e" stroke="none" /><path d="M 117.65298651832404 88.62581576622439 l 23.328230435198083 -15.030861239399254 a48.7512724903882,48.7512724903882 0 0,0 0.4484476425255573,0.7093364755411345 l -23.583505673969597 14.627077116143914" fill="#ff970e" stroke="none" /><line stroke="#e1ed5e" stroke-width="0.3" x1="172.23445277983987" x2="176.4835382374775" y1="55.19839476539836" y2="52.563006222186495" /><path d="M 173.08426987136738 54.67131705675599 a86.0,86.0 0 0,1 12.851231095245387,41.99856678651699" fill="none" id="id63" stroke="none" /><text fill="#e1ed5e" style="font-size:6.75px; font-family:Arial;" text-anchor="middle"><textPath startOffset="22.20632615414155" xlink:href="#id63">March</textPath></text><path d="M 117.84615892207809 88.93136811851018 l 27.896989813144955 -17.302407324265666 a53.82705195185086,53.82705195185086 0 0,0 0.48158346126568813,0.7915965864756292 l -28.190689072696866 16.819642964582954" fill="#fff517" stroke="none" /><path d="M 118.03404312379186 89.2402003453031 l 30.08586144733195 -17.950375264722986 a56.033912587269405,56.033912587269405 0 0,0 0.48706898306578006,0.8325587777900125 l -30.390390104868057 17.429837074579076" fill="#e2ff1b" stroke="none" /><path d="M 119.04729006885535 91.15688171328212 l 36.33000338847866 -16.866993475701552 a61.054520532846595,61.054520532846595 0 0,0 0.4343525669771923,0.9570383057196892 l -36.6149582724192 16.2391331611398" fill="#90ff24" stroke="none" /><path d="M 119.196687751892 91.48605970444005 l 27.032531176331528 -11.98922227874784 a50.571932514608505,50.571932514608505 0 0,0 0.346078882074202,0.7987977750002018 l -27.234900768248412 11.522125359161036" fill="#ffba11" stroke="none" /><path d="M 119.7369772167798 92.82701384747503 l 52.164403131375245 -18.9580469798573 a76.5025449807764,76.5025449807764 0 0,0 0.43914981464959824,1.241535662564442 l -52.48300602683465 18.057313690866245" fill="#3fffc2" stroke="none" /><path d="M 119.85752413597 93.16781622104841 l 22.132315405829424 -7.614848924314885 a44.40566831695378,44.40566831695378 0 0,0 0.2424606714807185,0.7249265467505798 l -22.26011337108191 7.232749274641992" fill="#ff4206" stroke="none" /><path d="M 120.37134235888165 94.90015583598534 l 61.11402707664495 -15.299532492043943 a84.0,84.0 0 0,0 0.33906879895672226,1.4056590733623755 l -61.36832867586249 14.245288187022162" fill="#4dd2ff" stroke="none" /><line stroke="#e1ed5e" stroke-width="0.3" x1="184.98032266829074" x2="189.97916517819016" y1="98.17113171792111" y2="98.06355123074" /><path d="M 185.9800911702706 98.14961562048488 a86.0,86.0 0 0,1 -9.607161424134198,41.387399972396054" fill="none" id="id64" stroke="none" /><text fill="#e1ed5e" style="font-size:6.75px; font-family:Arial;" text-anchor="middle"><textPath startOffset="21.466115282336823" xlink:href="#id64">April</textPath></text><line stroke="#e1ed5e" stroke-width="0.3" x1="174.80103733775053" x2="179.2010983576182" y1="140.37084112569926" y2="142.7455964860345" /><path d="M 175.68104954172406 140.8457921977663 a86.0,86.0 0 0,1 -30.038265399797805,32.042727171017184" fill="none" id="id65" stroke="none" /><text fill="#e1ed5e" style="font-size:6.75px; font-family:Arial;" text-anchor="middle"><textPath startOffset="22.206326154141568" xlink:href="#id65">May</textPath></text><line stroke="#e1ed5e" stroke-width="0.3" x1="143.8653032363475" x2="146.44561519142675" y1="172.8068346515853" y2="177.08958963109032" /><path d="M 144.38136562736335 173.6633856474863 a86.0,86.0 0 0,1 -40.68145358897372,12.25698825130547" fill="none" id="id66" stroke="none" /><text fill="#e1ed5e" style="font-size:6.75px; font-family:Arial;" text-anchor="middle"><textPath startOffset="21.466115282336833" xlink:href="#id66">June</textPath></text><line stroke="#e1ed5e" stroke-width="0.3" x1="102.19456741930631" x2="102.32365962044197" y1="184.97166512339345" y2="189.96999836594603" /><path d="M 102.22038585953345 185.97133177190398 a86.0,86.0 0 0,1 -42.740103519485714,-10.115201625700543" fill="none" id="id67" stroke="none" /><text fill="#e1ed5e" style="font-size:6.75px; font-family:Arial;" text-anchor="middle"><textPath startOffset="22.20632615414155" xlink:href="#id67">July</textPath></text><line stroke="#e1ed5e" stroke-width="0.3" x1="58.666819895761336" x2="56.23545636021788" y1="174.27360380694188" y2="178.64263932499728" /><path d="M 58.180547188652646 175.14741091055294 a86.0,86.0 0 0,1 -31.652253787137756,-30.449443065178592" fill="none" id="id68" stroke="none" /><text fill="#e1ed5e" style="font-size:6.75px; font-family:Arial;" text-anchor="middle"><textPath startOffset="22.20632615414155" xlink:href="#id68">August</textPath></text><path d="M 88.24862548938628 117.40417183066458 l -11.330028217805188 16.78014412449031 a41.24704364234266,41.24704364234266 0 0,0 -0.5850070465967117,-0.40237318102826386 l 11.617192149024788 -16.582630154096943" fill="#ff0000" stroke="none" /><path d="M 82.85270091963577 112.12312394758628 l -33.49925741761918 23.683942755214954 a62.02595997614452,62.02595997614452 0 0,0 -0.6088559581847726,-0.8771024183883216 l 33.90197428296608 -23.103799074639618" fill="#81ff25" stroke="none" /><line stroke="#e1ed5e" stroke-width="0.3" x1="26.63291911575756" x2="22.317208475507996" y1="142.92168965132927" y2="145.44649492493687" /><path d="M 25.769776987707644 143.4266507060508 a86.0,86.0 0 0,1 -11.730757126820373,-40.83630448921669" fill="none" id="id69" stroke="none" /><text fill="#e1ed5e" style="font-size:6.75px; font-family:Arial;" text-anchor="middle"><textPath startOffset="21.46611528233685" xlink:href="#id69">September</textPath></text><path d="M 79.67330655649465 105.27499134158121 l -27.92955706588811 7.248014641743488 a49.85470280809748,49.85470280809748 0 0,0 -0.20841327789206346,-0.832507445234117 l 28.050181658075232 -6.766179357111979" fill="#ffac10" stroke="none" /><path d="M 79.18660465613746 102.79330883721812 l -44.948000097907304 6.032348101521495 a66.3509860578511,66.3509860578511 0 0,0 -0.14217591583746295,-1.1332819373559464 l 45.045177522991615 -5.257748409878141" fill="#40ff2d" stroke="none" /><line stroke="#e1ed5e" stroke-width="0.3" x1="15.007084014347285" x2="10.007500721073583" y1="101.09737516637583" y2="101.16192664675087" /><path d="M 14.007167355692545 101.11028546245083 a86.0,86.0 0 0,1 10.666146001902534,-42.60595125391555" fill="none" id="id70" stroke="none" /><text fill="#e1ed5e" style="font-size:6.75px; font-family:Arial;" text-anchor="middle"><textPath startOffset="22.20632615414155" xlink:href="#id70">October</textPath></text><line stroke="#e1ed5e" stroke-width="0.3" x1="26.266209847984243" x2="21.928928074336255" y1="57.711370442889674" y2="55.22380399835377" /><path d="M 25.398753493254645 57.213857153982495 a86.0,86.0 0 0,1 29.58750427330803,-30.492523968695096" fill="none" id="id71" stroke="none" /><text fill="#e1ed5e" style="font-size:6.75px; font-family:Arial;" text-anchor="middle"><textPath startOffset="21.46611528233685" xlink:href="#id71">November</textPath></text><line stroke="#e1ed5e" stroke-width="0.3" x1="56.762969772571076" x2="54.21961505331055" y1="26.818313649435495" y2="22.513508569990535" /><path d="M 56.25429882871897 25.957352633546506 a86.0,86.0 0 0,1 42.265352541879196,-11.944610805530505" fill="none" id="id72" stroke="none" /><text fill="#e1ed5e" style="font-size:6.75px; font-family:Arial;" text-anchor="middle"><textPath startOffset="22.20632615414155" xlink:href="#id72">December</textPath></text></svg>